<?xml version="1.0" encoding="UTF-8"?>
<svg xmlns="http://www.w3.org/2000/svg" width="50" height="50" viewBox="0 0 50 50" fill="none">
  <g opacity="0.5">
    <path d="M2.29533 22.1394C0.174231 21.8073 0.105221 18.2487 2.30444 17.9493C3.11434 17.8386 5.19767 17.836 5.85392 18.2891L6.54272 19.112C7.44767 17.1693 8.60652 14.7149 10.2094 13.2565C12.0766 11.5573 15.3018 11.5612 17.6833 11.2578C17.9672 9.13935 18.9047 7.11201 20.6716 5.84769C25.432 2.44144 31.7732 5.49743 32.2836 11.2136C34.3188 11.5235 36.85 11.5313 38.7068 12.4857C40.9516 13.6394 42.3591 16.8841 43.5063 19.0131C43.7836 18.6953 43.9503 18.3959 44.3422 18.1901C45.0649 17.8099 47.531 17.8177 48.2654 18.1615C49.4763 18.7305 49.6625 20.7188 48.7341 21.6055C48.5792 21.7526 47.8682 22.1394 47.7055 22.1394H45.5076C46.7589 23.2162 47.8578 24.5534 48.3839 26.1472C49.307 28.9414 48.38 32.3789 48.2367 35.2696C48.1 38.0573 48.3656 40.9492 48.2185 43.7474C47.8891 44.7071 47.1886 45.388 46.1443 45.4818C44.9789 45.586 41.5792 45.6367 40.4998 45.4545C39.9945 45.3698 39.3656 44.9532 39.0766 44.5339C39.018 44.4492 38.6703 43.8125 38.6703 43.7683V42.0599H11.3279V43.7683C11.3279 43.8112 10.9789 44.4492 10.9216 44.5339C10.6326 44.9532 10.0037 45.3698 9.49845 45.4545C8.41772 45.6367 5.01928 45.586 3.85392 45.4818C2.80965 45.388 2.11043 44.7071 1.7797 43.7474C1.63517 41.0131 1.89559 38.1888 1.76147 35.4649C1.56225 31.4102 0.0362106 27.1589 2.93204 23.655C3.37475 23.1198 3.98022 22.7032 4.39428 22.1381C3.74845 22.0664 2.91512 22.2344 2.29533 22.1381V22.1394ZM24.5896 5.86071C16.2979 6.4818 18.2615 19.3542 26.4086 17.3477C33.2953 15.6511 31.5688 5.33857 24.5896 5.86071ZM42.5779 20.6745C42.1638 19.4753 41.5505 18.2344 40.8982 17.1302C39.1612 14.1927 38.4216 13.5352 34.9932 12.9766C34.3305 12.8685 33.0883 12.6407 32.4698 12.6589C32.3604 12.6628 32.2445 12.6589 32.1729 12.7617C31.4464 17.53 26.4919 20.2383 22.0349 18.3177C20.2224 17.5365 18.7471 15.9011 18.1182 14.0313C18.0271 13.7617 17.8748 12.7227 17.712 12.6745C15.5649 13.0352 12.5727 12.944 10.932 14.5677C9.41512 16.069 8.28882 18.7448 7.42163 20.6758H42.5779V20.6745ZM5.37085 20.6745C5.3422 20.4141 5.26147 19.5013 5.01538 19.418C4.27059 19.4506 3.40861 19.3269 2.67944 19.3985C1.74194 19.4909 2.19897 20.6732 2.39168 20.6732H5.37085V20.6745ZM44.6287 20.6745H47.6078C47.8018 20.6745 48.2589 19.4922 47.3201 19.3998C47.0076 19.3685 45.1964 19.3659 45.018 19.4532C44.7706 19.5756 44.6391 20.392 44.6287 20.6758V20.6745ZM43.5063 22.1394H6.5922C6.56486 22.1394 6.44637 22.2956 6.39038 22.336L6.39298 22.5248C7.58829 24.2526 8.98673 26.0547 10.5987 27.4102C12.0232 28.6081 13.3096 29.0756 15.1807 29.1758C22.1456 29.5469 29.2745 29.0026 36.2354 29.03C39.5466 28.2526 41.8969 25.0742 43.6534 22.3802L43.505 22.1407L43.5063 22.1394ZM5.22501 23.4115C4.18986 24.3659 3.28751 25.3412 2.87996 26.7292C2.22632 28.9597 2.95678 33.8125 3.34871 36.2227C3.60783 37.8125 3.67423 40.4427 5.70939 40.6003L44.7094 40.53C45.9985 40.1433 46.1274 39.017 46.3565 37.8802C46.8422 35.4779 47.2641 32.4427 47.363 30C47.4776 27.1836 47.0154 25.2487 44.7758 23.4115C42.432 26.5925 39.7107 30.2787 35.406 30.543C28.561 30.9636 21.2914 30.2162 14.4008 30.543C10.186 30.2123 7.56486 26.4792 5.22501 23.4128V23.4115ZM9.96069 42.0612H5.51798C5.35913 42.0612 4.52059 41.7787 4.32788 41.6888C3.87866 41.4766 3.51147 41.0912 3.12475 40.7917V43.2813C3.12475 43.6602 3.69897 44.0508 4.06095 44.1029C4.88517 44.2188 8.32007 44.2305 9.10652 44.0886C10.1026 43.9089 9.98022 42.8412 9.95939 42.0612H9.96069ZM40.0388 42.0612C40.0193 42.8412 39.8969 43.9089 40.8917 44.0886C41.6781 44.2305 45.113 44.2188 45.9373 44.1029C46.2992 44.0521 46.8735 43.6602 46.8735 43.2813V40.7917C46.5141 41.0547 46.2068 41.418 45.8044 41.6276C45.5883 41.7396 44.6742 42.0612 44.4802 42.0612H40.0375H40.0388Z" fill="#0D53C7"></path>
    <path d="M44.2148 30.2629C44.7916 30.1496 45.0403 30.5662 45.1093 31.0832C45.2304 31.9842 45.2213 34.5506 45.1184 35.4686C45.0611 35.9803 44.9205 36.186 44.4387 36.3514C42.5221 37.0051 40.0025 37.061 38.0234 37.66C37.7096 37.7108 37.3463 37.4855 37.2525 37.1834C37.1458 36.8436 37.1562 34.8267 37.207 34.3931C37.2304 34.1926 37.2643 34.0597 37.4023 33.9048L44.2161 30.2629H44.2148ZM43.6523 32.1978L38.664 34.8787L38.6718 36.0064L43.6523 35.0298V32.1978Z" fill="#0D53C7"></path>
    <path d="M5.54167 30.2604C5.84115 30.2018 6.52865 30.625 6.83854 30.7812C8.78516 31.763 10.6719 32.8893 12.6003 33.9062C12.737 34.0612 12.7721 34.194 12.7956 34.3945C12.8398 34.7786 12.8424 37.0338 12.7422 37.2747C12.5951 37.6276 12.2122 37.6836 11.8789 37.6575C9.88281 37.4974 7.58333 36.5729 5.54427 36.3724C5.22917 36.2656 5.02083 36.1068 4.97656 35.7682C4.85937 34.8789 4.85937 31.7656 4.97656 30.875C5.01432 30.5911 5.25521 30.3151 5.54167 30.2604ZM11.3281 34.737L6.34766 32.1979V34.9818L11.3281 36.1042V34.737Z" fill="#0D53C7"></path>
    <path d="M17.7487 34.9561L32.0807 34.9326C33.0755 34.96 33.25 36.1748 32.2812 36.4027L17.483 36.3467C16.8424 35.9352 16.9817 35.0928 17.7487 34.9561Z" fill="#0D53C7"></path>
    <path d="M26.3429 7.02786C26.7348 7.44453 26.1645 9.62682 26.1671 10.2583C26.7413 10.6932 28.227 10.7036 28.0121 11.7167L24.5655 16.2831C24.2374 16.6555 23.8129 16.6672 23.4822 16.2857C23.0004 15.731 23.714 13.8755 23.6228 13.119C22.8285 12.5539 21.4796 12.5982 22.227 11.3078C22.6723 10.5383 24.6736 7.63984 25.2426 7.09687C25.5551 6.79739 26.0199 6.68411 26.3429 7.02786ZM26.0746 11.7896C25.283 11.5708 24.5213 11.4471 24.7061 10.4211L23.8311 11.5448C24.5408 11.9797 25.4705 12.0708 25.0994 13.1555C25.2843 12.994 26.1827 11.9393 26.0746 11.7896Z" fill="#0D53C7"></path>
  </g>
</svg>
