<?xml version="1.0" encoding="UTF-8"?>
<svg xmlns="http://www.w3.org/2000/svg" width="60" height="60" viewBox="0 0 60 60" fill="none">
  <g clip-path="url(#clip0_4538_864)">
    <path d="M10.5469 0C11.5109 0.178125 13.0078 1.51094 13.0078 2.51875V13.9437H38.8469L51.9703 0.817188L53.4375 0H54.6094C55.5031 0.265625 56.1328 0.81875 56.7953 1.44688C57.4375 2.05625 58.9375 3.5125 59.4141 4.15938C59.7016 4.55156 59.7953 4.96875 60 5.38906V6.56094L59.2391 7.96875L53.3203 13.9437H57.0109C57.5109 13.9437 58.4734 14.3312 58.8859 14.6469C59.4875 15.1094 59.6984 15.75 60 16.4047V57.5375C59.6234 58.7969 58.7922 59.6234 57.5391 59.9984H7.26562C6.84687 59.8016 6.34062 59.8125 5.88594 59.6797C2.75 58.7609 0.53125 56.0422 0 52.85V7.03125C0.49375 3.55469 3.47187 0.382813 7.03125 0H10.5469ZM1.99219 46.6406C3.01719 45.6766 4.1625 44.8031 5.53281 44.3813C7.17812 43.8734 8.82812 44.0281 10.5187 43.8594C10.8328 43.7141 11.0266 43.1688 11.0203 42.8375L10.9891 2.77813C10.7422 1.68125 8.34687 1.92344 7.45469 2.00625C4.975 2.23906 1.99062 4.69219 1.99062 7.32344V46.6391L1.99219 46.6406ZM53.8766 2.01406C53.4953 2.0875 51.8812 3.55625 51.9219 3.79219L56.2922 8.07656C56.8453 7.45625 58.2578 6.5625 57.9578 5.61875C57.3562 5.02031 54.8844 2.13437 54.2891 2.01094C54.1359 1.97969 54.0281 1.98438 53.8781 2.0125L53.8766 2.01406ZM50.3562 5.28594C50.2172 5.32188 48.9719 6.59688 48.9937 6.72188L53.3641 11.0063C53.6203 10.7047 54.8062 9.80313 54.7156 9.45625C54.5781 8.93594 51.1672 6.13438 50.6906 5.38281C50.5953 5.28594 50.4922 5.25 50.3578 5.28437L50.3562 5.28594ZM47.5187 8.0875L36.6875 18.9406L40.9719 23.3109L51.9109 12.4797L47.5187 8.0875ZM36.6797 16.0547H13.0078V43.5359C13.0078 43.5813 12.7328 44.2687 12.6781 44.3781C11.4062 46.9203 8.15469 45.5766 5.97812 46.35C-0.240625 48.5609 1.21094 57.5703 8.02188 58.0141H56.9C57.3547 58.0422 57.7 57.7656 57.9187 57.3922L57.9297 16.6609C57.7797 16.175 57.4906 16.0922 57.0172 16.05C55.1578 15.8844 52.9828 16.1344 51.0953 16.1156L41.4859 25.725C40.2906 26.6812 37.9141 26.8766 36.3922 26.9594C31.4781 27.2266 26.3203 26.7547 21.3812 26.9484L20.9766 27.1297V37.9703H45V32.7547C45 32.6422 45.4031 32.2 45.5422 32.125C46.2406 31.7547 46.9047 32.2656 46.9953 32.9859V48.2234C46.8719 49.3578 45.9062 49.9828 44.8281 50.0437L25.1359 50.0391C24.35 50.0047 23.7719 49.3203 24.1109 48.5453C24.175 48.3969 24.5484 48.0469 24.6672 48.0469H31.9906V39.9609H20.975V54.3172C20.975 54.8563 19.8172 55.1891 19.3375 54.7828C19.2734 54.7281 18.9828 54.2344 18.9828 54.2V26.9531H15.6422C15.2547 26.9531 14.95 26.2359 15 25.85C15.0453 25.4938 15.5406 24.9609 15.8766 24.9609H33.0437C33.1609 23.3734 33.075 20.9141 33.6891 19.4547C34.2375 18.1516 35.8453 17.1859 36.6766 16.0547H36.6797ZM39.375 24.6078L35.3922 20.625C35.4625 21.3688 34.7391 24.3719 35.1844 24.8156C36.5 25.1906 38.0094 24.6328 39.375 24.6078ZM45 39.9609H33.9844V48.0469H45V39.9609Z" fill="white"></path>
  </g>
  <defs>
    <clipPath id="clip0_4538_864">
      <rect width="60" height="60" fill="white"></rect>
    </clipPath>
  </defs>
</svg>
