<?xml version="1.0" encoding="UTF-8"?>
<svg xmlns="http://www.w3.org/2000/svg" width="167" height="99" viewBox="0 0 167 99" fill="none">
  <path d="M69.1367 41H74.9795C80.6844 41 83.5831 43.8771 83.5831 48.9054V49.0857C83.5831 54.1375 80.6151 57.1994 74.9562 57.1994H69.1367V41ZM74.8183 53.6211C77.5615 53.6211 78.775 52.1711 78.775 49.1607V48.9809C78.775 45.9012 77.5615 44.5846 74.778 44.5846H73.766V53.6268H74.824L74.8183 53.6211ZM85.7967 50.6284V41H90.4033V50.4252C90.4033 52.7161 90.9669 53.8238 92.9223 53.8238C94.8776 53.8238 95.4412 52.7802 95.4412 50.3554V41H100.094V50.5643C100.094 55.28 97.3506 57.4725 92.9279 57.4725C88.5058 57.4725 85.8086 55.1638 85.8086 50.6284H85.7967ZM103.159 41H110.325C114.12 41 115.736 42.723 115.736 45.2343V45.3271C115.736 47.1423 114.816 48.3432 113.016 48.8184C114.994 49.1607 116.231 50.3617 116.231 52.6005V52.6932C116.231 55.5932 114.368 57.1994 110.388 57.1994H103.153V41H103.159ZM109.405 47.4325C110.842 47.4325 111.383 46.9339 111.383 45.7793V45.6923C111.383 44.5846 110.796 44.086 109.405 44.086H107.65V47.4382H109.405V47.4325ZM109.56 54.0911C111.021 54.0911 111.693 53.4122 111.693 52.2118V52.119C111.693 50.8952 111.043 50.2626 109.422 50.2626H107.644V54.0911H109.56ZM122.166 41H128.118L133.219 57.1994H128.342L127.491 54.1838H122.166L121.314 57.1994H117.025L122.166 41ZM123.063 50.9936H126.588L124.834 44.7644L123.057 50.9936H123.063ZM135.232 41H139.884V57.1994H135.232V41ZM69.1367 61.764H79.9885V65.3658H73.766V68.8119H78.729V72.2334H73.766V77.9635H69.1367V61.764ZM82.3179 61.764H86.9699V77.964H82.3179V61.764ZM90.225 61.764H95.4123L100.56 70.8933V61.764H104.579V77.964H100.134L94.268 67.7901V77.9629H90.225V61.764ZM110.842 65.3429H106.684V61.764H119.624V65.3429H115.466V77.9635H110.837V65.3429H110.842ZM121.734 61.764H132.834V65.3429H126.318V68.1267H131.505V71.4325H126.318V74.3794H133.19V77.9577H121.734V61.7583V61.764ZM134.513 69.9654V69.7856C134.513 64.8037 138.015 61.515 142.714 61.515C146.895 61.515 149.793 63.4636 150.173 67.7437H145.434C145.256 66.0911 144.352 65.1861 142.737 65.1861C140.672 65.1861 139.367 66.8158 139.367 69.7622V69.9425C139.367 72.8653 140.603 74.5185 142.806 74.5185C144.422 74.5185 145.566 73.6599 145.796 71.8676H150.38C150.064 76.0613 147.056 78.236 142.898 78.236C137.279 78.236 134.519 74.9301 134.519 69.9654H134.513ZM152.484 61.764H157.114V67.9527H162.393V61.7646H167V77.9635H162.393V71.5722H157.114V77.9635H152.484V61.764ZM68.1014 93.583H72.4838C72.5984 94.7371 73.1104 95.6884 75.0198 95.6884C76.3423 95.6884 77.0841 95.033 77.0841 94.0816C77.0841 93.1308 76.4802 92.8114 74.5481 92.516C70.0108 91.9705 68.4811 90.6132 68.4811 87.348C68.4811 84.4246 70.8616 82.2963 74.7036 82.2963C78.5451 82.2963 80.7474 83.926 81.0408 87.348H76.7737C76.6187 86.194 75.9631 85.6021 74.7093 85.6021C73.4555 85.6021 72.8459 86.1705 72.8459 86.9828C72.8459 87.8873 73.3403 88.2994 75.3416 88.5719C79.4078 89.0241 81.4955 90.0911 81.4955 93.6002C81.4955 96.57 79.1604 98.9943 75.0255 98.9943C70.5341 98.9943 68.2393 97.0921 68.1071 93.5773L68.1014 93.583ZM83.4622 92.1559V82.5281H88.0688V91.9533C88.0688 94.2442 88.6324 95.3519 90.5872 95.3519C92.5425 95.3519 93.1062 94.3077 93.1062 91.8835V82.5281H97.7587V92.0924C97.7587 96.8076 95.0155 99 90.5934 99C86.1707 99 83.4735 96.6919 83.4735 92.1559H83.4622ZM100.824 82.5281H106.822L109.899 91.1587L112.976 82.5281H118.859V98.7275H114.276V88.6475L110.342 98.7275H108.812L104.925 88.6475V98.7275H100.812V82.5281H100.824ZM122.074 82.5281H128.072L131.149 91.1587L134.225 82.5281H140.109V98.7275H135.525V88.6475L131.591 98.7275H130.062L126.174 88.6475V98.7275H122.062V82.5281H122.074ZM143.41 82.5281H148.062V98.7275H143.41V82.5281ZM154.394 86.107H150.236V82.5281H163.176V86.107H159.017V98.7275H154.388V86.107H154.394ZM28.8971 53.1918H29.6861C29.8371 53.191 29.9865 53.1601 30.1257 53.1011C30.2649 53.0421 30.3912 52.9559 30.4974 52.8477C30.6036 52.7394 30.6876 52.6111 30.7447 52.47C30.8017 52.329 30.8306 52.178 30.8298 52.0257C30.8305 51.8734 30.8015 51.7225 30.7444 51.5815C30.6873 51.4405 30.6033 51.3122 30.497 51.204C30.3907 51.0958 30.2644 51.0097 30.1252 50.9507C29.9859 50.8917 29.8365 50.861 29.6855 50.8602H28.8971C28.7461 50.861 28.5967 50.8917 28.4575 50.9507C28.3183 51.0097 28.1919 51.0958 28.0857 51.204C27.9794 51.3122 27.8953 51.4405 27.8382 51.5815C27.7811 51.7225 27.7521 51.8734 27.7529 52.0257C27.7529 52.6697 28.2648 53.1918 28.8971 53.1918ZM24.7855 57.6637H33.8954C34.0464 57.6629 34.1959 57.6322 34.3351 57.5732C34.4744 57.5141 34.6008 57.428 34.707 57.3197C34.8133 57.2115 34.8974 57.0831 34.9544 56.9421C35.0115 56.801 35.0405 56.65 35.0396 56.4976C35.0404 56.3453 35.0114 56.1943 34.9542 56.0532C34.8971 55.9122 34.813 55.7839 34.7066 55.6757C34.6003 55.5674 34.4739 55.4814 34.3346 55.4224C34.1953 55.3635 34.0459 55.3328 33.8948 55.3321H24.7855C24.6345 55.3328 24.485 55.3635 24.3458 55.4224C24.2065 55.4814 24.0801 55.5675 23.9739 55.6757C23.8676 55.7839 23.7835 55.9122 23.7264 56.0533C23.6694 56.1943 23.6404 56.3453 23.6412 56.4976C23.6412 57.1416 24.1526 57.6637 24.7855 57.6637ZM38.3402 59.8097H20.1443C19.9933 59.8105 19.8439 59.8412 19.7046 59.9002C19.5654 59.9592 19.4391 60.0452 19.3328 60.1535C19.2266 60.2617 19.1425 60.39 19.0854 60.531C19.0283 60.672 18.9993 60.8229 19 60.9752C19 61.6192 19.512 62.1413 20.1443 62.1413H38.3402C38.4913 62.1406 38.6408 62.1099 38.7801 62.0509C38.9195 61.9919 39.0459 61.9058 39.1522 61.7976C39.2586 61.6893 39.3427 61.5609 39.3998 61.4198C39.4569 61.2787 39.4858 61.1276 39.485 60.9752C39.4858 60.8229 39.4568 60.6719 39.3996 60.5308C39.3425 60.3898 39.2584 60.2615 39.152 60.1533C39.0457 60.045 38.9193 59.959 38.78 59.9C38.6407 59.8411 38.4913 59.8104 38.3402 59.8097ZM42.9581 64.3045H38.985C38.8331 64.3053 38.6829 64.3362 38.543 64.3955C38.403 64.4548 38.2759 64.5413 38.1691 64.6501C38.0623 64.7589 37.9777 64.8879 37.9203 65.0296C37.8629 65.1714 37.8337 65.3232 37.8345 65.4763C37.8345 66.1197 38.3521 66.6481 38.9844 66.6481H42.9581C43.2647 66.6464 43.5581 66.5221 43.7739 66.3024C43.9896 66.0826 44.11 65.7855 44.1086 65.4763C44.1086 64.8323 43.591 64.3045 42.9581 64.3045ZM47.105 68.84H36.1958C36.044 68.8406 35.8937 68.8715 35.7537 68.9307C35.6137 68.99 35.4866 69.0765 35.3798 69.1854C35.2729 69.2942 35.1884 69.4232 35.131 69.565C35.0736 69.7068 35.0445 69.8586 35.0453 70.0117C35.0453 70.6557 35.563 71.1835 36.1953 71.1835H47.105C47.4115 71.1819 47.7049 71.0575 47.9205 70.8377C48.1361 70.618 48.2564 70.3209 48.2549 70.0117C48.2549 69.3677 47.7373 68.84 47.105 68.84ZM42.9298 73.3468H30.5074C30.2009 73.3484 29.9075 73.4728 29.6919 73.6925C29.4762 73.9123 29.3559 74.2094 29.3575 74.5185C29.3575 75.162 29.8751 75.6898 30.5074 75.6898H42.9298C43.2362 75.6881 43.5295 75.5638 43.7451 75.3442C43.9607 75.1246 44.0811 74.8276 44.0797 74.5185C44.0797 73.8745 43.5621 73.3468 42.9298 73.3468Z" fill="white"></path>
  <path d="M35.792 65H25.208C25.0485 65.0007 24.8907 65.0307 24.7437 65.0883C24.5967 65.1459 24.4633 65.2299 24.3511 65.3356C24.239 65.4413 24.1502 65.5665 24.09 65.7042C24.0297 65.8419 23.9992 65.9892 24 66.1379C24 66.7633 24.5438 67.2758 25.208 67.2758H35.792C36.114 67.2742 36.4222 67.1534 36.6487 66.94C36.8752 66.7267 37.0016 66.4381 37 66.1379C37 65.5125 36.4562 65 35.792 65ZM32.6261 69.3482H25.208C24.5372 69.3482 24 69.8613 24 70.4861C24 71.1115 24.5438 71.624 25.208 71.624H32.6261C32.7856 71.6233 32.9434 71.5933 33.0904 71.5357C33.2375 71.4781 33.3709 71.3941 33.4832 71.2884C33.5954 71.1828 33.6842 71.0575 33.7445 70.9199C33.8048 70.7822 33.8354 70.6348 33.8347 70.4861C33.8347 69.8613 33.2909 69.3482 32.6261 69.3482ZM26.5673 73.7247H25.208C25.0485 73.7255 24.8907 73.7555 24.7437 73.8131C24.5967 73.8706 24.4633 73.9547 24.3511 74.0604C24.239 74.166 24.1502 74.2913 24.09 74.4289C24.0297 74.5666 23.9992 74.714 24 74.8626C24 75.4875 24.5438 76 25.208 76H26.5673C26.7268 75.9993 26.8844 75.9693 27.0314 75.9117C27.1784 75.8542 27.3118 75.7702 27.424 75.6646C27.5361 75.559 27.6249 75.4338 27.6852 75.2962C27.7454 75.1586 27.7761 75.0113 27.7753 74.8626C27.7753 74.2373 27.2315 73.7247 26.5673 73.7247Z" fill="#12E9E9"></path>
  <path d="M15.1318 66.7116H21.9936C22.3028 66.71 22.5986 66.5856 22.8161 66.3659C23.0336 66.1461 23.1549 65.849 23.1534 65.5399C23.1534 64.8964 22.6313 64.3686 21.9936 64.3686H15.1318C14.8228 64.3703 14.527 64.4946 14.3095 64.7142C14.0921 64.9338 13.9707 65.2308 13.9721 65.5399C13.9721 66.1838 14.4941 66.7116 15.1318 66.7116ZM21.9936 71.1892C22.3028 71.1876 22.5986 71.0632 22.8161 70.8435C23.0336 70.6237 23.1549 70.3266 23.1534 70.0175C23.1534 69.374 22.6313 68.8463 21.9936 68.8463H11.02C10.7108 68.8478 10.4149 68.972 10.1974 69.1916C9.97977 69.4113 9.8583 69.7083 9.85967 70.0175C9.85967 70.6615 10.3817 71.1892 11.02 71.1892H21.9936ZM21.9994 73.3468H15.1439C14.9907 73.3475 14.8392 73.3784 14.6981 73.4377C14.5569 73.497 14.4287 73.5835 14.321 73.6923C14.2133 73.8011 14.128 73.9301 14.0701 74.0719C14.0122 74.2136 13.9828 74.3654 13.9835 74.5185C13.9835 75.162 14.5056 75.6898 15.1439 75.6898H21.9994C22.3084 75.6881 22.6042 75.5638 22.8217 75.3442C23.0391 75.1246 23.1605 74.8276 23.1591 74.5185C23.1591 73.8745 22.6371 73.3468 21.9994 73.3468ZM33.5472 82.3718H24.4935C23.8609 82.3718 23.3446 82.8939 23.3446 83.5316C23.3446 84.1698 23.8609 84.6913 24.4935 84.6913H33.5472C34.1791 84.6913 34.6955 84.1704 34.6955 83.5316C34.6955 82.8939 34.1791 82.3718 33.5472 82.3718ZM38.1473 77.9171H19.7835C19.1515 77.9171 18.6352 78.4392 18.6352 79.0774C18.6352 79.7151 19.1515 80.2372 19.7835 80.2372H38.1473C38.7787 80.2372 39.295 79.7151 39.295 79.0774C39.295 78.4392 38.7792 77.9171 38.1473 77.9171ZM29.2665 86.8202H28.6637C28.0312 86.8202 27.5148 87.3423 27.5148 87.98C27.5148 88.6183 28.0312 89.1403 28.6637 89.1403H29.2665C29.899 89.1403 30.4148 88.6183 30.4148 87.98C30.4148 87.3423 29.8996 86.8202 29.2665 86.8202ZM57.9365 68.6951L30.2705 41.0006V45.9419L52.9998 68.6946H57.9359L57.9365 68.6951ZM0 71.2419L27.73 99V94.0587L4.93556 71.2413H0V71.2419ZM27.73 45.9419V41L0.0641131 68.6951H4.99967L27.73 45.9419ZM30.2705 94.0587V99L58 71.2413H53.0639L30.2705 94.0587Z" fill="white"></path>
  <path d="M8.39328 15L11.6693 4.92H13.7763L17.0523 15H15.5333L12.5163 5.802H12.8943L9.91228 15H8.39328ZM10.0943 12.725V11.353H15.3583V12.725H10.0943ZM23.6141 15V11.283C23.6141 10.989 23.5885 10.688 23.5371 10.38C23.4905 10.0673 23.3971 9.778 23.2571 9.512C23.1218 9.246 22.9281 9.03133 22.6761 8.868C22.4288 8.70467 22.1045 8.623 21.7031 8.623C21.4418 8.623 21.1945 8.66733 20.9611 8.756C20.7278 8.84 20.5225 8.97767 20.3451 9.169C20.1725 9.36033 20.0348 9.61233 19.9321 9.925C19.8341 10.2377 19.7851 10.618 19.7851 11.066L18.8751 10.723C18.8751 10.037 19.0035 9.43267 19.2601 8.91C19.5168 8.38267 19.8855 7.972 20.3661 7.678C20.8468 7.384 21.4278 7.237 22.1091 7.237C22.6318 7.237 23.0705 7.321 23.4251 7.489C23.7798 7.657 24.0668 7.87867 24.2861 8.154C24.5101 8.42467 24.6805 8.721 24.7971 9.043C24.9138 9.365 24.9931 9.68 25.0351 9.988C25.0771 10.296 25.0981 10.5667 25.0981 10.8V15H23.6141ZM18.3011 15V7.44H19.6101V9.624H19.7851V15H18.3011ZM29.7241 15V4.92H36.1641V6.299H31.1871V9.127H35.3241V10.506H31.1871V13.621H36.1641V15H29.7241ZM41.0792 15.21C40.3046 15.21 39.6466 15.0373 39.1052 14.692C38.5639 14.3467 38.1486 13.873 37.8592 13.271C37.5746 12.669 37.4299 11.9853 37.4252 11.22C37.4299 10.4407 37.5792 9.75233 37.8732 9.155C38.1672 8.553 38.5872 8.08167 39.1332 7.741C39.6792 7.40033 40.3349 7.23 41.1002 7.23C41.9262 7.23 42.6309 7.43533 43.2142 7.846C43.8022 8.25667 44.1896 8.819 44.3762 9.533L42.9202 9.953C42.7756 9.52833 42.5376 9.19933 42.2062 8.966C41.8796 8.728 41.5039 8.609 41.0792 8.609C40.5986 8.609 40.2042 8.72333 39.8962 8.952C39.5882 9.176 39.3596 9.484 39.2102 9.876C39.0609 10.268 38.9839 10.716 38.9792 11.22C38.9839 11.9993 39.1612 12.6293 39.5112 13.11C39.8659 13.5907 40.3886 13.831 41.0792 13.831C41.5506 13.831 41.9309 13.7237 42.2202 13.509C42.5142 13.2897 42.7382 12.977 42.8922 12.571L44.3762 12.921C44.1289 13.6583 43.7206 14.2253 43.1512 14.622C42.5819 15.014 41.8912 15.21 41.0792 15.21ZM48.8802 15.21C48.1242 15.21 47.4685 15.0397 46.9132 14.699C46.3579 14.3583 45.9285 13.8893 45.6252 13.292C45.3265 12.69 45.1772 11.997 45.1772 11.213C45.1772 10.4243 45.3312 9.73133 45.6392 9.134C45.9472 8.532 46.3789 8.06533 46.9342 7.734C47.4895 7.398 48.1382 7.23 48.8802 7.23C49.6362 7.23 50.2919 7.40033 50.8472 7.741C51.4025 8.08167 51.8319 8.55067 52.1352 9.148C52.4385 9.74533 52.5902 10.4337 52.5902 11.213C52.5902 12.0017 52.4362 12.697 52.1282 13.299C51.8249 13.8963 51.3955 14.3653 50.8402 14.706C50.2849 15.042 49.6315 15.21 48.8802 15.21ZM48.8802 13.831C49.6035 13.831 50.1425 13.5883 50.4972 13.103C50.8565 12.613 51.0362 11.983 51.0362 11.213C51.0362 10.4243 50.8542 9.79433 50.4902 9.323C50.1309 8.847 49.5942 8.609 48.8802 8.609C48.3902 8.609 47.9865 8.721 47.6692 8.945C47.3519 9.16433 47.1162 9.47 46.9622 9.862C46.8082 10.2493 46.7312 10.6997 46.7312 11.213C46.7312 12.0063 46.9132 12.641 47.2772 13.117C47.6412 13.593 48.1755 13.831 48.8802 13.831ZM56.8827 15.203C55.9634 15.203 55.2144 15 54.6357 14.594C54.0571 14.188 53.7024 13.6163 53.5717 12.879L55.0697 12.648C55.1631 13.04 55.3777 13.3503 55.7137 13.579C56.0544 13.803 56.4767 13.915 56.9807 13.915C57.4381 13.915 57.7951 13.8217 58.0517 13.635C58.3131 13.4483 58.4437 13.1917 58.4437 12.865C58.4437 12.6737 58.3971 12.5197 58.3037 12.403C58.2151 12.2817 58.0261 12.1673 57.7367 12.06C57.4474 11.9527 57.0064 11.8197 56.4137 11.661C55.7651 11.493 55.2494 11.3133 54.8667 11.122C54.4887 10.926 54.2181 10.6997 54.0547 10.443C53.8961 10.1817 53.8167 9.86667 53.8167 9.498C53.8167 9.04067 53.9381 8.64167 54.1807 8.301C54.4234 7.96033 54.7641 7.69667 55.2027 7.51C55.6461 7.32333 56.1641 7.23 56.7567 7.23C57.3354 7.23 57.8511 7.321 58.3037 7.503C58.7564 7.685 59.1227 7.944 59.4027 8.28C59.6827 8.61133 59.8507 9.001 59.9067 9.449L58.4087 9.722C58.3574 9.358 58.1871 9.071 57.8977 8.861C57.6084 8.651 57.2327 8.53667 56.7707 8.518C56.3274 8.49933 55.9681 8.574 55.6927 8.742C55.4174 8.90533 55.2797 9.13167 55.2797 9.421C55.2797 9.589 55.3311 9.73133 55.4337 9.848C55.5411 9.96467 55.7464 10.0767 56.0497 10.184C56.3531 10.2913 56.8011 10.4197 57.3937 10.569C58.0284 10.7323 58.5324 10.9143 58.9057 11.115C59.2791 11.311 59.5451 11.5467 59.7037 11.822C59.8671 12.0927 59.9487 12.4217 59.9487 12.809C59.9487 13.5557 59.6757 14.1413 59.1297 14.566C58.5884 14.9907 57.8394 15.203 56.8827 15.203ZM62.2461 18.36L63.7091 14.377L63.7301 15.553L60.4331 7.44H61.9591L64.4231 13.705H63.9751L66.3271 7.44H67.8111L63.6391 18.36H62.2461ZM71.7987 15.203C70.8794 15.203 70.1304 15 69.5517 14.594C68.9731 14.188 68.6184 13.6163 68.4877 12.879L69.9857 12.648C70.0791 13.04 70.2937 13.3503 70.6297 13.579C70.9704 13.803 71.3927 13.915 71.8967 13.915C72.3541 13.915 72.7111 13.8217 72.9677 13.635C73.2291 13.4483 73.3597 13.1917 73.3597 12.865C73.3597 12.6737 73.3131 12.5197 73.2197 12.403C73.1311 12.2817 72.9421 12.1673 72.6527 12.06C72.3634 11.9527 71.9224 11.8197 71.3297 11.661C70.6811 11.493 70.1654 11.3133 69.7827 11.122C69.4047 10.926 69.1341 10.6997 68.9707 10.443C68.8121 10.1817 68.7327 9.86667 68.7327 9.498C68.7327 9.04067 68.8541 8.64167 69.0967 8.301C69.3394 7.96033 69.6801 7.69667 70.1187 7.51C70.5621 7.32333 71.0801 7.23 71.6727 7.23C72.2514 7.23 72.7671 7.321 73.2197 7.503C73.6724 7.685 74.0387 7.944 74.3187 8.28C74.5987 8.61133 74.7667 9.001 74.8227 9.449L73.3247 9.722C73.2734 9.358 73.1031 9.071 72.8137 8.861C72.5244 8.651 72.1487 8.53667 71.6867 8.518C71.2434 8.49933 70.8841 8.574 70.6087 8.742C70.3334 8.90533 70.1957 9.13167 70.1957 9.421C70.1957 9.589 70.2471 9.73133 70.3497 9.848C70.4571 9.96467 70.6624 10.0767 70.9657 10.184C71.2691 10.2913 71.7171 10.4197 72.3097 10.569C72.9444 10.7323 73.4484 10.9143 73.8217 11.115C74.1951 11.311 74.4611 11.5467 74.6197 11.822C74.7831 12.0927 74.8647 12.4217 74.8647 12.809C74.8647 13.5557 74.5917 14.1413 74.0457 14.566C73.5044 14.9907 72.7554 15.203 71.7987 15.203ZM80.7396 15C80.2636 15.0933 79.7969 15.133 79.3396 15.119C78.8823 15.105 78.4739 15.0163 78.1146 14.853C77.7553 14.6897 77.4846 14.433 77.3026 14.083C77.1393 13.7703 77.0506 13.453 77.0366 13.131C77.0273 12.8043 77.0226 12.4357 77.0226 12.025V5.34H78.4926V11.955C78.4926 12.2583 78.4949 12.522 78.4996 12.746C78.5089 12.97 78.5579 13.159 78.6466 13.313C78.8146 13.6023 79.0806 13.768 79.4446 13.81C79.8133 13.8473 80.2449 13.831 80.7396 13.761V15ZM75.5736 8.616V7.44H80.7396V8.616H75.5736ZM85.3447 15.21C84.5934 15.21 83.9331 15.0467 83.3637 14.72C82.7991 14.3887 82.3581 13.929 82.0407 13.341C81.7281 12.7483 81.5717 12.0623 81.5717 11.283C81.5717 10.457 81.7257 9.74067 82.0337 9.134C82.3464 8.52733 82.7804 8.05833 83.3357 7.727C83.8911 7.39567 84.5374 7.23 85.2747 7.23C86.0447 7.23 86.7004 7.40967 87.2417 7.769C87.7831 8.12367 88.1867 8.63 88.4527 9.288C88.7234 9.946 88.8307 10.7277 88.7747 11.633H87.3117V11.101C87.3024 10.2237 87.1344 9.575 86.8077 9.155C86.4857 8.735 85.9934 8.525 85.3307 8.525C84.5981 8.525 84.0474 8.756 83.6787 9.218C83.3101 9.68 83.1257 10.3473 83.1257 11.22C83.1257 12.0507 83.3101 12.6947 83.6787 13.152C84.0474 13.6047 84.5794 13.831 85.2747 13.831C85.7321 13.831 86.1264 13.7283 86.4577 13.523C86.7937 13.313 87.0551 13.0143 87.2417 12.627L88.6767 13.082C88.3827 13.7587 87.9371 14.2837 87.3397 14.657C86.7424 15.0257 86.0774 15.21 85.3447 15.21ZM82.6497 11.633V10.492H88.0467V11.633H82.6497ZM99.1982 15L99.2052 10.289C99.2052 9.743 99.0652 9.31833 98.7852 9.015C98.5052 8.707 98.1365 8.553 97.6792 8.553C97.3992 8.553 97.1425 8.61833 96.9092 8.749C96.6805 8.875 96.4938 9.06633 96.3492 9.323C96.2092 9.575 96.1392 9.89233 96.1392 10.275L95.4322 9.918C95.4228 9.386 95.5348 8.91933 95.7682 8.518C96.0062 8.11667 96.3282 7.80633 96.7342 7.587C97.1402 7.363 97.5952 7.251 98.0992 7.251C98.9158 7.251 99.5482 7.496 99.9962 7.986C100.444 8.476 100.668 9.127 100.668 9.939L100.661 15H99.1982ZM90.1332 15V7.44H91.4352V9.624H91.6032V15H90.1332ZM94.6692 15L94.6762 10.317C94.6762 9.76633 94.5362 9.33467 94.2562 9.022C93.9808 8.70933 93.6098 8.553 93.1432 8.553C92.6812 8.553 92.3078 8.71167 92.0232 9.029C91.7432 9.34633 91.6032 9.76167 91.6032 10.275L90.9032 9.827C90.9032 9.33233 91.0222 8.89133 91.2602 8.504C91.4982 8.11667 91.8202 7.811 92.2262 7.587C92.6322 7.363 93.0918 7.251 93.6052 7.251C94.1418 7.251 94.5992 7.36533 94.9772 7.594C95.3552 7.818 95.6422 8.133 95.8382 8.539C96.0388 8.945 96.1392 9.41633 96.1392 9.953L96.1322 15H94.6692ZM105.289 15V4.92H111.729V6.299H106.752V9.127H110.889V10.506H106.752V13.621H111.729V15H105.289ZM115.454 15L112.71 7.44H114.187L116.196 13.166L118.205 7.44H119.682L116.938 15H115.454ZM124.022 15.21C123.271 15.21 122.611 15.0467 122.041 14.72C121.477 14.3887 121.036 13.929 120.718 13.341C120.406 12.7483 120.249 12.0623 120.249 11.283C120.249 10.457 120.403 9.74067 120.711 9.134C121.024 8.52733 121.458 8.05833 122.013 7.727C122.569 7.39567 123.215 7.23 123.952 7.23C124.722 7.23 125.378 7.40967 125.919 7.769C126.461 8.12367 126.864 8.63 127.13 9.288C127.401 9.946 127.508 10.7277 127.452 11.633H125.989V11.101C125.98 10.2237 125.812 9.575 125.485 9.155C125.163 8.735 124.671 8.525 124.008 8.525C123.276 8.525 122.725 8.756 122.356 9.218C121.988 9.68 121.803 10.3473 121.803 11.22C121.803 12.0507 121.988 12.6947 122.356 13.152C122.725 13.6047 123.257 13.831 123.952 13.831C124.41 13.831 124.804 13.7283 125.135 13.523C125.471 13.313 125.733 13.0143 125.919 12.627L127.354 13.082C127.06 13.7587 126.615 14.2837 126.017 14.657C125.42 15.0257 124.755 15.21 124.022 15.21ZM121.327 11.633V10.492H126.724V11.633H121.327ZM134.124 15V11.283C134.124 10.989 134.098 10.688 134.047 10.38C134 10.0673 133.907 9.778 133.767 9.512C133.632 9.246 133.438 9.03133 133.186 8.868C132.939 8.70467 132.614 8.623 132.213 8.623C131.952 8.623 131.704 8.66733 131.471 8.756C131.238 8.84 131.032 8.97767 130.855 9.169C130.682 9.36033 130.545 9.61233 130.442 9.925C130.344 10.2377 130.295 10.618 130.295 11.066L129.385 10.723C129.385 10.037 129.513 9.43267 129.77 8.91C130.027 8.38267 130.395 7.972 130.876 7.678C131.357 7.384 131.938 7.237 132.619 7.237C133.142 7.237 133.58 7.321 133.935 7.489C134.29 7.657 134.577 7.87867 134.796 8.154C135.02 8.42467 135.19 8.721 135.307 9.043C135.424 9.365 135.503 9.68 135.545 9.988C135.587 10.296 135.608 10.5667 135.608 10.8V15H134.124ZM128.811 15V7.44H130.12V9.624H130.295V15H128.811ZM141.757 15C141.281 15.0933 140.815 15.133 140.357 15.119C139.9 15.105 139.492 15.0163 139.132 14.853C138.773 14.6897 138.502 14.433 138.32 14.083C138.157 13.7703 138.068 13.453 138.054 13.131C138.045 12.8043 138.04 12.4357 138.04 12.025V5.34H139.51V11.955C139.51 12.2583 139.513 12.522 139.517 12.746C139.527 12.97 139.576 13.159 139.664 13.313C139.832 13.6023 140.098 13.768 140.462 13.81C140.831 13.8473 141.263 13.831 141.757 13.761V15ZM136.591 8.616V7.44H141.757V8.616H136.591ZM149.437 15.21C148.681 15.21 148.025 15.0397 147.47 14.699C146.914 14.3583 146.485 13.8893 146.182 13.292C145.883 12.69 145.734 11.997 145.734 11.213C145.734 10.4243 145.888 9.73133 146.196 9.134C146.504 8.532 146.935 8.06533 147.491 7.734C148.046 7.398 148.695 7.23 149.437 7.23C150.193 7.23 150.848 7.40033 151.404 7.741C151.959 8.08167 152.388 8.55067 152.692 9.148C152.995 9.74533 153.147 10.4337 153.147 11.213C153.147 12.0017 152.993 12.697 152.685 13.299C152.381 13.8963 151.952 14.3653 151.397 14.706C150.841 15.042 150.188 15.21 149.437 15.21ZM149.437 13.831C150.16 13.831 150.699 13.5883 151.054 13.103C151.413 12.613 151.593 11.983 151.593 11.213C151.593 10.4243 151.411 9.79433 151.047 9.323C150.687 8.847 150.151 8.609 149.437 8.609C148.947 8.609 148.543 8.721 148.226 8.945C147.908 9.16433 147.673 9.47 147.519 9.862C147.365 10.2493 147.288 10.6997 147.288 11.213C147.288 12.0063 147.47 12.641 147.834 13.117C148.198 13.593 148.732 13.831 149.437 13.831ZM155.378 15V7.174C155.378 6.98267 155.385 6.77967 155.399 6.565C155.413 6.34567 155.453 6.131 155.518 5.921C155.588 5.70633 155.702 5.51033 155.861 5.333C156.052 5.123 156.262 4.97367 156.491 4.885C156.72 4.79633 156.946 4.745 157.17 4.731C157.399 4.717 157.609 4.71 157.8 4.71H158.752V5.914H157.87C157.525 5.914 157.266 6.00033 157.093 6.173C156.925 6.341 156.841 6.58133 156.841 6.894V15H155.378ZM154.125 8.616V7.44H158.752V8.616H154.125Z" fill="white"></path>
</svg>
